<svg xmlns="http://www.w3.org/2000/svg" xmlns:xlink="http://www.w3.org/1999/xlink" xmlns:lucid="lucid" width="4570" height="2430"><g transform="translate(1145 1105)" lucid:page-tab-id="0_0"><path d="M1940 620c0 33.14-80.6 60-180 60s-180-26.86-180-60V140c0-33.14 80.6-60 180-60s180 26.86 180 60z" stroke="#282c33" stroke-width="10" fill="#fff"/><path d="M1940 140c0 33.14-80.6 60-180 60s-180-26.86-180-60" stroke="#282c33" stroke-width="10" fill="none"/><use xlink:href="#a" transform="matrix(1,0,0,1,1585,205) translate(14.074074074074275 207.55208333333326)"/><use xlink:href="#b" transform="matrix(1,0,0,1,1585,205) translate(128.79629629629636 287.55208333333314)"/><path d="M290-801.04a6.9 6.9 0 0 1 5.94-6.84l648.12-91.28A5.2 5.2 0 0 1 950-894v548a6 6 0 0 1-6 6H296a6 6 0 0 1-6-6z" stroke="#282c33" stroke-width="10" fill="#fff"/><use xlink:href="#c" transform="matrix(1,0,0,1,295,-801.6666666666666) translate(227.49382716049388 249.59722222222217)"/><path d="M183.5-34a6 6 0 0 1 6-6h861a6 6 0 0 1 6 6v641.3a6 6 0 0 1-6 6h-861a6 6 0 0 1-6-6z" stroke="#282c33" stroke-width="10" fill="#fff"/><use xlink:href="#d" transform="matrix(1,0,0,1,195.50786824505235,-28) translate(247.3148148148151 335.11458333333326)"/><use xlink:href="#e" transform="matrix(1,0,0,1,195.50786824505235,-28) translate(447.6111111111111 335.11458333333326)"/><path d="M-1120 886a6 6 0 0 1 6-6h808a6 6 0 0 1 6 6v414c-136.94-70.14-222.22-70.14-273.88-70.14-82 0-191.06 70.14-273.06 70.14-50.84 0-136.94 0-273.06-70.14z" stroke="#282c33" stroke-width="10" fill="#fff"/><use xlink:href="#f" transform="matrix(1,0,0,1,-1115,885) translate(277.3271604938272 134.84027777777777)"/><use xlink:href="#g" transform="matrix(1,0,0,1,-1115,885) translate(258.9413580246914 233.5069444444444)"/><path d="M-1120-30.68a6 6 0 0 1 6-6h868a6 6 0 0 1 6 6v641.3a6 6 0 0 1-6 6h-868a6 6 0 0 1-6-6z" stroke="#282c33" stroke-width="10" fill="#fff"/><use xlink:href="#h" transform="matrix(1,0,0,1,-1108,-24.68458391341295) translate(289.83641975308655 328.0034722222222)"/><path d="M210 886a6 6 0 0 1 6-6h788a6 6 0 0 1 6 6v368a6 6 0 0 1-6 6H216a6 6 0 0 1-6-6z" stroke="#282c33" stroke-width="10" fill="#fff"/><use xlink:href="#i" transform="matrix(1,0,0,1,221.99999999999977,892) translate(194.91358024691374 193.48611111111103)"/><use xlink:href="#j" transform="matrix(1,0,0,1,221.99999999999977,892) translate(339.60493827160496 193.48611111111103)"/><path d="M1580-694a6 6 0 0 1 6-6h808a6 6 0 0 1 6 6v648a6 6 0 0 1-6 6h-808a6 6 0 0 1-6-6z" stroke="#282c33" stroke-width="10" fill="#fff"/><use xlink:href="#k" transform="matrix(1,0,0,1,1592,-688) translate(315.03703703703707 283.35416666666663)"/><use xlink:href="#l" transform="matrix(1,0,0,1,1592,-688) translate(268.5 395.35416666666663)"/><path d="M2760-1074a6 6 0 0 1 6-6h628a6 6 0 0 1 6 6v508a6 6 0 0 1-6 6h-628a6 6 0 0 1-6-6z" stroke="#282c33" stroke-width="10" fill="#fff"/><use xlink:href="#m" transform="matrix(1,0,0,1,2772,-1068) translate(225.6543209876544 267.7777777777777)"/><path d="M2760-134a6 6 0 0 1 6-6h628a6 6 0 0 1 6 6v508a6 6 0 0 1-6 6h-628a6 6 0 0 1-6-6z" stroke="#282c33" stroke-width="10" fill="#fff"/><use xlink:href="#n" transform="matrix(1,0,0,1,2772,-128) translate(257.03086419753095 267.77777777777766)"/><path d="M365.74 654.65v184" stroke="#3a414a" stroke-width="10" fill="none"/><path d="M365.74 628.13l12.73 21.52h-25.45zM365.74 865.18l-12.72-21.52h25.45z" stroke="#3a414a" stroke-width="10" fill="#fff"/><path d="M880 654.65v184" stroke="#3a414a" stroke-width="10" fill="none"/><path d="M880 628.13l12.73 21.52h-25.46zM880 865.18l-12.73-21.52h25.46z" stroke="#3a414a" stroke-width="10" fill="#fff"/><path d="M620-330v248.66" stroke="#3a414a" stroke-width="10" fill="none"/><path d="M624.98-329.87H615V-335H625z" stroke="#3a414a" stroke-width=".05" fill="#3a414a"/><path d="M620-54.82l-12.73-21.52h25.46z" stroke="#3a414a" stroke-width="10" fill="#fff"/><path d="M1066.5 286.66h245.75a6 6 0 0 0 6-6v-668a6 6 0 0 1 6-6h214.4" stroke="#3a414a" stroke-width="10" fill="none"/><path d="M1066.62 291.63h-5.13v-9.95h5.12z" stroke="#3a414a" stroke-width=".05" fill="#3a414a"/><path d="M1565.18-393.34l-21.52 12.72v-25.45z" stroke="#3a414a" stroke-width="10" fill="#fff"/><path d="M2410-493.75h164a6 6 0 0 0 6-6V-814a6 6 0 0 1 6-6h132.66" stroke="#3a414a" stroke-width="10" fill="none"/><path d="M2410.13-488.77H2405v-9.96h5.13z" stroke="#3a414a" stroke-width=".05" fill="#3a414a"/><path d="M2745.18-820l-21.52 12.73v-25.46z" stroke="#3a414a" stroke-width="10" fill="#fff"/><path d="M2410-218.75h164a6 6 0 0 1 6 6v338a6 6 0 0 0 6 6h132.66" stroke="#3a414a" stroke-width="10" fill="none"/><path d="M2410.13-213.78H2405v-9.94h5.13z" stroke="#3a414a" stroke-width=".05" fill="#3a414a"/><path d="M2745.18 131.25l-21.52 12.73v-25.46z" stroke="#3a414a" stroke-width="10" fill="#fff"/><path d="M173.5 286.66h-372.16" stroke="#3a414a" stroke-width="10" fill="none"/><path d="M178.5 291.63h-5.12v-9.95h5.13z" stroke="#3a414a" stroke-width=".05" fill="#3a414a"/><path d="M-225.18 286.66l21.52-12.73v25.45z" stroke="#3a414a" stroke-width="10" fill="#fff"/><path d="M-680 626.63V865.9" stroke="#3a414a" stroke-width="10" fill="none"/><path d="M-675.02 626.75H-685v-5.12h9.96z" stroke="#3a414a" stroke-width=".05" fill="#3a414a"/><path d="M-690.18 847.96l10.18 17.22 10.18-17.22M1097.83 418.75h440.83" stroke="#3a414a" stroke-width="10" fill="none"/><path d="M1071.3 418.75l21.53-12.73v25.46zM1565.18 418.75l-21.52 12.73v-25.46z" stroke="#3a414a" stroke-width="10" fill="#fff"/><path d="M1097.83 531.25h440.82" stroke="#3a414a" stroke-width="10" fill="none"/><path d="M1071.32 531.25l21.5-12.73v25.46zM1565.18 531.25l-21.52 12.73v-25.46z" stroke="#3a414a" stroke-width="10" fill="#fff"/><defs><path fill="#3a414a" d="M212-179c-10-28-35-45-73-45-59 0-87 40-87 99 0 60 29 101 89 101 43 0 62-24 78-52l27 14C228-24 195 4 139 4 59 4 22-46 18-125c-6-104 99-153 187-111 19 9 31 26 39 46" id="o"/><path fill="#3a414a" d="M141-36C126-15 110 5 73 4 37 3 15-17 15-53c-1-64 63-63 125-63 3-35-9-54-41-54-24 1-41 7-42 31l-33-3c5-37 33-52 76-52 45 0 72 20 72 64v82c-1 20 7 32 28 27v20c-31 9-61-2-59-35zM48-53c0 20 12 33 32 33 41-3 63-29 60-74-43 2-92-5-92 41" id="p"/><path fill="#3a414a" d="M135-143c-3-34-86-38-87 0 15 53 115 12 119 90S17 21 10-45l28-5c4 36 97 45 98 0-10-56-113-15-118-90-4-57 82-63 122-42 12 7 21 19 24 35" id="q"/><path fill="#3a414a" d="M117-194c89-4 53 116 60 194h-32v-121c0-31-8-49-39-48C34-167 62-67 57 0H25l-1-190h30c1 10-1 24 2 32 11-22 29-35 61-36" id="r"/><path fill="#3a414a" d="M85-194c31 0 48 13 60 33l-1-100h32l1 261h-30c-2-10 0-23-3-31C134-8 116 4 85 4 32 4 16-35 15-94c0-66 23-100 70-100zm9 24c-40 0-46 34-46 75 0 40 6 74 45 74 42 0 51-32 51-76 0-42-9-74-50-73" id="s"/><path fill="#3a414a" d="M114-163C36-179 61-72 57 0H25l-1-190h30c1 12-1 29 2 39 6-27 23-49 58-41v29" id="t"/><g id="a"><use transform="matrix(0.18518518518518493,0,0,0.18518518518518493,0,0)" xlink:href="#o"/><use transform="matrix(0.18518518518518493,0,0,0.18518518518518493,47.9629629629629,0)" xlink:href="#p"/><use transform="matrix(0.18518518518518493,0,0,0.18518518518518493,84.99999999999989,0)" xlink:href="#q"/><use transform="matrix(0.18518518518518493,0,0,0.18518518518518493,118.33333333333317,0)" xlink:href="#q"/><use transform="matrix(0.18518518518518493,0,0,0.18518518518518493,151.66666666666646,0)" xlink:href="#p"/><use transform="matrix(0.18518518518518493,0,0,0.18518518518518493,188.70370370370344,0)" xlink:href="#r"/><use transform="matrix(0.18518518518518493,0,0,0.18518518518518493,225.74074074074042,0)" xlink:href="#s"/><use transform="matrix(0.18518518518518493,0,0,0.18518518518518493,262.77777777777743,0)" xlink:href="#t"/><use transform="matrix(0.18518518518518493,0,0,0.18518518518518493,284.81481481481444,0)" xlink:href="#p"/></g><path fill="#3a414a" d="M30-248c118-7 216 8 213 122C240-48 200 0 122 0H30v-248zM63-27c89 8 146-16 146-99s-60-101-146-95v194" id="u"/><path fill="#3a414a" d="M160-131c35 5 61 23 61 61C221 17 115-2 30 0v-248c76 3 177-17 177 60 0 33-19 50-47 57zm-97-11c50-1 110 9 110-42 0-47-63-36-110-37v79zm0 115c55-2 124 14 124-45 0-56-70-42-124-44v89" id="v"/><g id="b"><use transform="matrix(0.18518518518518493,0,0,0.18518518518518493,0,0)" xlink:href="#u"/><use transform="matrix(0.18518518518518493,0,0,0.18518518518518493,47.9629629629629,0)" xlink:href="#v"/></g><path fill="#3a414a" d="M232-93c-1 65-40 97-104 97C67 4 28-28 28-90v-158h33c8 89-33 224 67 224 102 0 64-133 71-224h33v155" id="w"/><path fill="#3a414a" d="M233-177c-1 41-23 64-60 70L243 0h-38l-65-103H63V0H30v-248c88 3 205-21 203 71zM63-129c60-2 137 13 137-47 0-61-80-42-137-45v92" id="x"/><path fill="#3a414a" d="M30 0v-248h33v221h125V0H30" id="y"/><g id="c"><use transform="matrix(0.2716049382716048,0,0,0.2716049382716048,0,0)" xlink:href="#w"/><use transform="matrix(0.2716049382716048,0,0,0.2716049382716048,70.34567901234564,0)" xlink:href="#x"/><use transform="matrix(0.2716049382716048,0,0,0.2716049382716048,140.69135802469128,0)" xlink:href="#y"/></g><path fill="#3a414a" d="M266 0h-40l-56-210L115 0H75L2-248h35L96-30l15-64 43-154h32l59 218 59-218h35" id="z"/><path fill="#3a414a" d="M100-194c63 0 86 42 84 106H49c0 40 14 67 53 68 26 1 43-12 49-29l28 8c-11 28-37 45-77 45C44 4 14-33 15-96c1-61 26-98 85-98zm52 81c6-60-76-77-97-28-3 7-6 17-6 28h103" id="A"/><path fill="#3a414a" d="M115-194c53 0 69 39 70 98 0 66-23 100-70 100C84 3 66-7 56-30L54 0H23l1-261h32v101c10-23 28-34 59-34zm-8 174c40 0 45-34 45-75 0-40-5-75-45-74-42 0-51 32-51 76 0 43 10 73 51 73" id="B"/><g id="d"><use transform="matrix(0.24074074074074037,0,0,0.24074074074074037,0,0)" xlink:href="#z"/><use transform="matrix(0.24074074074074037,0,0,0.24074074074074037,79.92592592592581,0)" xlink:href="#A"/><use transform="matrix(0.24074074074074037,0,0,0.24074074074074037,128.07407407407388,0)" xlink:href="#B"/></g><path fill="#3a414a" d="M205 0l-28-72H64L36 0H1l101-248h38L239 0h-34zm-38-99l-47-123c-12 45-31 82-46 123h93" id="C"/><path fill="#3a414a" d="M115-194c55 1 70 41 70 98S169 2 115 4C84 4 66-9 55-30l1 105H24l-1-265h31l2 30c10-21 28-34 59-34zm-8 174c40 0 45-34 45-75s-6-73-45-74c-42 0-51 32-51 76 0 43 10 73 51 73" id="D"/><g id="e"><use transform="matrix(0.24074074074074037,0,0,0.24074074074074037,0,0)" xlink:href="#C"/><use transform="matrix(0.24074074074074037,0,0,0.24074074074074037,57.777777777777686,0)" xlink:href="#D"/><use transform="matrix(0.24074074074074037,0,0,0.24074074074074037,105.92592592592575,0)" xlink:href="#D"/></g><path fill="#3a414a" d="M143 4C61 4 22-44 18-125c-5-107 100-154 193-111 17 8 29 25 37 43l-32 9c-13-25-37-40-76-40-61 0-88 39-88 99 0 61 29 100 91 101 35 0 62-11 79-27v-45h-74v-28h105v86C228-13 192 4 143 4" id="E"/><path fill="#3a414a" d="M24-231v-30h32v30H24zM24 0v-190h32V0H24" id="F"/><path fill="#3a414a" d="M59-47c-2 24 18 29 38 22v24C64 9 27 4 27-40v-127H5v-23h24l9-43h21v43h35v23H59v120" id="G"/><path fill="#3a414a" d="M197 0v-115H63V0H30v-248h33v105h134v-105h34V0h-34" id="H"/><path fill="#3a414a" d="M84 4C-5 8 30-112 23-190h32v120c0 31 7 50 39 49 72-2 45-101 50-169h31l1 190h-30c-1-10 1-25-2-33-11 22-28 36-60 37" id="I"/><g id="f"><use transform="matrix(0.228395061728395,0,0,0.228395061728395,0,0)" xlink:href="#E"/><use transform="matrix(0.228395061728395,0,0,0.228395061728395,63.9506172839506,0)" xlink:href="#F"/><use transform="matrix(0.228395061728395,0,0,0.228395061728395,81.99382716049381,0)" xlink:href="#G"/><use transform="matrix(0.228395061728395,0,0,0.228395061728395,104.83333333333331,0)" xlink:href="#H"/><use transform="matrix(0.228395061728395,0,0,0.228395061728395,163.98765432098762,0)" xlink:href="#I"/><use transform="matrix(0.228395061728395,0,0,0.228395061728395,209.66666666666663,0)" xlink:href="#B"/></g><path fill="#3a414a" d="M100-194c62-1 85 37 85 99 1 63-27 99-86 99S16-35 15-95c0-66 28-99 85-99zM99-20c44 1 53-31 53-75 0-43-8-75-51-75s-53 32-53 75 10 74 51 75" id="J"/><path fill="#3a414a" d="M177-190C167-65 218 103 67 71c-23-6-38-20-44-43l32-5c15 47 100 32 89-28v-30C133-14 115 1 83 1 29 1 15-40 15-95c0-56 16-97 71-98 29-1 48 16 59 35 1-10 0-23 2-32h30zM94-22c36 0 50-32 50-73 0-42-14-75-50-75-39 0-46 34-46 75s6 73 46 73" id="K"/><g id="g"><use transform="matrix(0.228395061728395,0,0,0.228395061728395,0,0)" xlink:href="#y"/><use transform="matrix(0.228395061728395,0,0,0.228395061728395,45.679012345679,0)" xlink:href="#J"/><use transform="matrix(0.228395061728395,0,0,0.228395061728395,91.358024691358,0)" xlink:href="#K"/><use transform="matrix(0.228395061728395,0,0,0.228395061728395,137.037037037037,0)" xlink:href="#K"/><use transform="matrix(0.228395061728395,0,0,0.228395061728395,182.716049382716,0)" xlink:href="#F"/><use transform="matrix(0.228395061728395,0,0,0.228395061728395,200.7592592592592,0)" xlink:href="#r"/><use transform="matrix(0.228395061728395,0,0,0.228395061728395,246.4382716049382,0)" xlink:href="#K"/></g><g id="h"><use transform="matrix(0.2160493827160492,0,0,0.2160493827160492,0,0)" xlink:href="#y"/><use transform="matrix(0.2160493827160492,0,0,0.2160493827160492,43.20987654320984,0)" xlink:href="#J"/><use transform="matrix(0.2160493827160492,0,0,0.2160493827160492,86.41975308641968,0)" xlink:href="#K"/><use transform="matrix(0.2160493827160492,0,0,0.2160493827160492,129.6296296296295,0)" xlink:href="#K"/><use transform="matrix(0.2160493827160492,0,0,0.2160493827160492,172.83950617283935,0)" xlink:href="#F"/><use transform="matrix(0.2160493827160492,0,0,0.2160493827160492,189.90740740740725,0)" xlink:href="#r"/><use transform="matrix(0.2160493827160492,0,0,0.2160493827160492,233.1172839506171,0)" xlink:href="#K"/></g><path fill="#3a414a" d="M240 0l2-218c-23 76-54 145-80 218h-23L58-218 59 0H30v-248h44l77 211c21-75 51-140 76-211h43V0h-30" id="L"/><g id="i"><use transform="matrix(0.24691358024691334,0,0,0.24691358024691334,0,0)" xlink:href="#L"/><use transform="matrix(0.24691358024691334,0,0,0.24691358024691334,73.8271604938271,0)" xlink:href="#y"/></g><path fill="#3a414a" d="M24 0v-261h32V0H24" id="M"/><g id="j"><use transform="matrix(0.24691358024691334,0,0,0.24691358024691334,0,0)" xlink:href="#L"/><use transform="matrix(0.24691358024691334,0,0,0.24691358024691334,73.8271604938271,0)" xlink:href="#J"/><use transform="matrix(0.24691358024691334,0,0,0.24691358024691334,123.20987654320976,0)" xlink:href="#s"/><use transform="matrix(0.24691358024691334,0,0,0.24691358024691334,172.59259259259244,0)" xlink:href="#A"/><use transform="matrix(0.24691358024691334,0,0,0.24691358024691334,221.97530864197512,0)" xlink:href="#M"/></g><path fill="#3a414a" d="M30 0v-248h187v28H63v79h144v27H63v87h162V0H30" id="N"/><g id="k"><use transform="matrix(0.2592592592592592,0,0,0.2592592592592592,0,0)" xlink:href="#N"/><use transform="matrix(0.2592592592592592,0,0,0.2592592592592592,62.22222222222221,0)" xlink:href="#r"/><use transform="matrix(0.2592592592592592,0,0,0.2592592592592592,114.07407407407405,0)" xlink:href="#s"/></g><path fill="#3a414a" d="M30-248c87 1 191-15 191 75 0 78-77 80-158 76V0H30v-248zm33 125c57 0 124 11 124-50 0-59-68-47-124-48v98" id="O"/><g id="l"><use transform="matrix(0.2592592592592592,0,0,0.2592592592592592,0,0)" xlink:href="#O"/><use transform="matrix(0.2592592592592592,0,0,0.2592592592592592,62.22222222222221,0)" xlink:href="#J"/><use transform="matrix(0.2592592592592592,0,0,0.2592592592592592,114.07407407407405,0)" xlink:href="#F"/><use transform="matrix(0.2592592592592592,0,0,0.2592592592592592,134.55555555555551,0)" xlink:href="#r"/><use transform="matrix(0.2592592592592592,0,0,0.2592592592592592,186.40740740740736,0)" xlink:href="#G"/><use transform="matrix(0.2592592592592592,0,0,0.2592592592592592,212.3333333333333,0)" xlink:href="#q"/></g><path fill="#3a414a" d="M33 0v-248h34V0H33" id="P"/><g id="m"><use transform="matrix(0.2839506172839504,0,0,0.2839506172839504,0,0)" xlink:href="#C"/><use transform="matrix(0.2839506172839504,0,0,0.2839506172839504,68.1481481481481,0)" xlink:href="#O"/><use transform="matrix(0.2839506172839504,0,0,0.2839506172839504,136.2962962962962,0)" xlink:href="#P"/></g><g id="n"><use transform="matrix(0.2839506172839502,0,0,0.2839506172839502,0,0)" xlink:href="#w"/><use transform="matrix(0.2839506172839502,0,0,0.2839506172839502,73.5432098765431,0)" xlink:href="#P"/></g></defs></g></svg>